<svg width="212" height="165" viewBox="0 0 212 165" fill="none" xmlns="http://www.w3.org/2000/svg">
<g clip-path="url(#clip0_67_2)">
<path fill-rule="evenodd" clip-rule="evenodd" d="M52.959 91.7289C54.1543 100.747 55.358 109.764 56.5702 118.782L57.5366 126.052C57.6638 126.964 57.5366 128.787 58.0198 129.598C58.1978 129.877 58.6302 130.029 58.9353 130.206C60.0289 130.788 61.1479 131.396 62.2414 131.979C71.5493 136.969 80.8656 141.951 90.1904 146.924C99.1423 151.711 108.086 156.49 117.02 161.261C117.936 161.768 119.436 163.034 120.428 162.705C121.369 162.375 122.336 161.59 123.2 161.084L128.159 158.196C138.179 152.345 148.191 146.502 158.194 140.667C162.314 138.261 166.459 135.855 170.579 133.423C171.698 132.764 172.842 132.106 173.961 131.447C174.546 131.092 174.622 131.118 174.851 130.535C175.716 128.357 176.123 125.849 176.733 123.569C177.42 121.062 178.081 118.554 178.768 116.071C179.073 114.957 178.92 114.805 178.437 113.741C177.471 111.613 176.479 109.46 175.512 107.332C173.351 102.596 171.181 97.8588 169.002 93.122C168.137 91.1969 166.027 89.8544 164.501 88.4612L140.9 66.5757C140.29 66.0185 139.705 65.4612 139.095 64.9039C138.993 68.2475 138.332 71.8445 139.298 75.0614C140.9 80.3555 142.477 85.6496 144.079 90.9436C144.842 93.502 145.631 96.0604 146.394 98.6188C146.546 99.1 147.411 100.974 147.182 101.405C147.055 101.633 145.961 101.861 145.707 101.962C144.69 102.342 143.647 102.748 142.63 103.128C139.782 104.217 136.908 105.281 134.059 106.37C131.491 107.332 128.922 108.32 126.354 109.283C125.489 109.612 124.472 110.22 123.531 110.169C122.717 110.119 121.776 109.713 120.988 109.511C119.589 109.156 118.19 108.802 116.792 108.422L108.552 106.294C105.449 105.509 102.855 103.178 100.21 101.456C95.6582 98.4919 91.1144 95.5283 86.5792 92.5648C85.5365 91.8809 85.5365 91.5009 85.1296 90.2597C84.1886 87.4734 83.2731 84.687 82.3322 81.9007C81.8235 80.4062 81.2132 78.9117 80.8571 77.3918C80.2468 74.8841 79.8653 72.2751 79.3821 69.742C79.2295 68.9821 79.0769 68.1969 78.9498 67.437C77.0424 68.1969 75.1351 68.9821 73.2277 69.742C72.948 69.8434 71.6001 70.198 71.4984 70.4513C71.4221 70.6286 71.829 71.4139 71.8799 71.5658L76.6101 85.5482C77.1187 87.0174 77.6019 88.4866 78.1106 89.9557C76.9153 88.1066 75.7454 86.2322 74.5502 84.383C73.6092 87.4987 72.6937 90.6397 71.7527 93.7553C69.5402 91.2223 67.3531 88.6892 65.1406 86.1562L62.8518 93.7553C60.4867 90.6397 58.0961 87.4987 55.731 84.383C55.4513 86.0042 55.1715 87.6507 54.8918 89.2718C54.8155 89.7531 54.8155 91.1716 54.4849 91.5769C54.2306 91.8809 53.4676 91.7289 52.959 91.7289Z" fill="#FFDDAE"/>
<path fill-rule="evenodd" clip-rule="evenodd" d="M203.233 111.208C203.105 115.464 203.182 120.96 200.868 124.684C200.486 125.292 199.214 127.166 199.062 125.52C198.935 123.899 199.316 122.303 198.935 120.656C198.731 119.77 198.019 117.87 196.799 118.655C196.188 119.06 196.01 120.048 195.781 120.682C195.425 121.619 195.018 122.531 194.637 123.443C193.314 126.66 191.941 130.51 189.017 132.638C189.398 129.851 190.441 126.888 189.754 124.076C189.525 123.113 188.788 121.366 187.542 121.923C186.321 122.48 185.532 124.912 184.948 126.001C183.193 129.294 181.413 132.536 179.454 135.703C178.497 137.287 177.371 138.765 176.097 140.11C175.284 140.971 174.266 142.415 172.995 142.542C172.995 140.11 173.809 137.754 174.521 135.475C175.309 133.018 176.021 130.535 176.809 128.053C177.471 125.9 178.03 123.797 178.488 121.594C178.666 120.682 178.819 119.744 179.607 119.162C180.294 118.63 181.413 118.377 182.176 117.997C184.255 116.988 186.276 115.864 188.228 114.628C189.017 114.121 189.678 113.437 190.492 112.981C191.414 112.495 192.305 111.954 193.162 111.36C196.875 108.574 200.232 105.129 202.47 101.051C202.826 102.697 203.309 104.293 203.385 105.99C203.385 107.738 203.283 109.486 203.233 111.208ZM172.664 130.712C172.079 129.725 171.164 130.13 170.375 130.611C169.129 131.371 167.909 132.106 166.662 132.84C164.119 134.335 161.652 135.931 159.186 137.526C154.15 140.769 148.937 143.428 143.647 146.164C138.51 148.824 133.602 151.99 128.795 155.182C127.651 155.942 126.481 156.727 125.387 157.563C124.396 158.297 123.607 159.336 122.59 159.994C121.522 160.678 120.759 160.121 119.742 159.615C118.445 158.981 117.097 158.449 115.774 157.892C110.459 155.587 105.119 153.206 99.9306 150.597C94.7935 148.013 89.9107 145.024 84.977 142.035C82.6373 140.617 80.3231 139.122 78.0088 137.653C75.542 136.083 72.9989 134.917 70.4049 133.6C69.2605 133.018 68.2432 132.207 67.0734 131.675C65.8272 131.118 64.5302 130.712 63.4367 129.902C62.9281 129.547 62.5212 129.117 61.9617 128.838C61.5039 128.635 60.9698 128.585 60.5121 128.357C59.5711 127.901 59.3168 126.989 59.1388 126.026C57.969 119.871 57.3586 113.538 56.672 107.282C56.2905 103.786 55.8582 100.291 55.3495 96.795C55.1206 95.2245 55.5784 94.0086 55.8327 92.4635C56.1125 90.665 56.2396 88.8666 56.4431 87.0681C57.3586 88.7652 58.1724 90.5637 59.3422 92.1089C60.2069 93.2487 61.6819 94.8699 63.2841 94.8446C65.7509 94.7939 65.6492 90.5637 65.7509 88.8919C66.8699 89.9051 67.226 91.5263 68.1669 92.6915C69.0316 93.7553 70.176 95.0725 71.4984 95.5538C74.2704 96.567 73.9907 91.4503 73.8381 90.0064C73.7618 89.2719 73.3549 88.132 74.3213 88.4613C75.2114 88.7652 76.1015 90.0318 76.8644 90.6144C78.1614 91.6276 79.611 92.4382 80.9334 93.4007C82.5865 94.5913 84.3921 95.4525 86.096 96.5417C87.1641 97.2256 88.3085 97.3776 89.4783 97.9095C91.1822 98.6441 92.6573 99.7587 94.2849 100.671C97.5363 102.483 100.961 103.968 104.508 105.103C105.627 105.458 107.153 106.421 107.992 105.433C108.526 104.825 108.857 103.888 109.315 103.178C109.874 102.317 110.485 101.456 111.12 100.62C113.328 97.6398 115.815 94.8749 118.546 92.3622C121.727 89.4327 125.214 86.8512 128.948 84.6617C130.55 83.7245 137.238 79.545 138.713 82.4833C137.518 82.4073 136.45 82.8379 135.433 83.3952C135.178 83.5218 133.881 84.4591 134.187 83.6485C133.805 83.7245 133.475 84.2058 133.195 84.4337C132.621 84.8492 132.018 85.2217 131.389 85.5483C130.83 85.8522 130.118 85.9282 129.609 86.3082C129.431 86.4348 129.304 86.6628 129.126 86.8148H128.617C128.541 87.0934 128.465 87.3721 128.388 87.676C128.109 86.7388 127.676 87.9547 127.193 88.36C126.853 88.6098 126.486 88.8222 126.099 88.9932C125.845 89.0945 125.794 88.8412 125.565 89.0439C125.337 89.2212 125.209 89.6265 124.955 89.8291C124.641 90.088 124.31 90.325 123.963 90.5384C123.327 90.9943 122.666 91.349 122.056 91.7542C121.191 92.3368 120.759 93.2994 119.92 93.9073C119.538 94.186 118.928 94.2113 118.699 94.4139C118.165 94.8699 118.343 95.5538 117.351 95.5791C117.447 95.7125 117.5 95.8713 117.504 96.0351C117.267 95.9973 117.046 95.8917 116.868 95.7311C116.919 96.719 115.927 97.0736 115.342 97.6816C114.962 98.0633 114.63 98.4884 114.35 98.9481C114.291 99.1554 114.248 99.3672 114.223 99.5813C114.121 99.632 113.587 99.1507 113.638 99.1761C113.486 100.088 112.595 100.949 112.214 101.785C112.011 102.241 111.807 102.95 111.4 103.254C111.298 103.33 110.942 103.254 110.688 103.533C110.457 103.803 110.276 104.112 110.154 104.445C110.103 104.647 110.154 105.129 110.078 105.255C109.925 105.458 109.696 105.255 109.467 105.407C109.035 105.686 109.035 106.142 108.425 106.193C108.857 107.231 111.426 107.535 112.341 107.839C114.986 108.675 117.733 109.486 120.199 110.752C120.835 111.081 121.446 111.36 121.547 112.095C121.7 113.133 121.166 114.526 121.064 115.59C120.805 118.479 120.712 121.379 120.784 124.279C120.835 126.989 120.937 129.75 121.064 132.46C121.191 134.993 121.7 137.45 121.98 139.958C122.056 140.642 122.005 143.732 123.2 143.58C124.192 143.454 123.556 141.326 123.556 140.718C123.505 139.375 123.811 138.008 123.785 136.64C123.785 135.981 124.065 135.424 124.09 134.816C124.116 134.208 123.811 133.701 123.912 133.068C123.989 132.46 125.82 128.939 124.065 129.345C124.167 128.838 124.268 128.331 124.396 127.825C124.575 127.996 124.73 128.192 124.853 128.407C125.006 127.318 124.955 126.254 125.057 125.165C125.108 124.684 125.311 124.127 125.235 123.645C125.247 123.44 125.221 123.234 125.158 123.037C125.107 122.981 125.044 122.937 124.974 122.906C124.904 122.876 124.828 122.86 124.752 122.86C124.703 122.764 124.682 122.656 124.691 122.549C124.7 122.442 124.739 122.339 124.802 122.252C124.824 122.165 124.872 122.086 124.94 122.027C125.009 121.968 125.094 121.931 125.184 121.923C125.54 121.872 125.591 121.669 125.311 121.315C125.455 120.691 125.472 120.045 125.362 119.415C125.286 118.807 125.591 117.642 125.26 117.085C124.879 116.451 124.675 117.059 124.624 116.198C124.591 115.944 124.608 115.686 124.675 115.438C124.752 115.236 125.006 115.312 125.031 115.236C125.235 114.754 125.26 113.792 124.497 113.868C124.523 113.513 124.548 113.158 124.599 112.829C125.158 113.462 124.955 112.93 125.26 112.576C125.667 112.095 126.099 112.019 126.684 111.841C128.287 111.335 129.812 110.6 131.364 109.992C134.67 108.7 138.027 107.56 141.231 106.066C147.97 102.874 154.583 99.4294 161.347 96.3137C160.864 95.4272 161.169 95.3765 161.525 94.5406C162.008 94.8699 161.907 94.6419 162.237 94.6166C162.212 94.3379 162.288 94.262 162.492 94.3633C162.655 94.4188 162.829 94.4362 163 94.4139C163.433 94.4899 163.763 94.7179 164.145 94.7939C164.266 94.8862 164.404 94.9549 164.552 94.9965C164.687 94.9645 164.811 94.8942 164.908 94.7939C165.518 94.9205 165.721 95.3765 165.772 96.0351C165.772 96.1617 165.416 96.2631 165.518 96.4404C165.696 96.719 166.179 96.643 166.459 96.6937C166.408 96.9723 166.332 97.2509 166.281 97.5549C167.502 96.9976 167.171 98.7454 167.552 99.3027C167.654 99.4547 167.883 99.328 168.01 99.5307C168.163 99.784 168.112 100.113 168.239 100.367C168.544 100.899 168.824 100.848 169.129 101.456C170.681 104.698 172.74 107.738 174.241 111.056C174.953 112.627 175.589 114.248 176.326 115.818C177.013 117.262 177.394 118.478 176.911 120.074C175.792 123.721 174.572 127.445 173.097 130.991C173.006 130.986 172.919 130.957 172.844 130.908C172.768 130.86 172.706 130.792 172.664 130.712ZM94.0051 158.019L93.6999 158.551C93.4711 157.208 94.0814 157.841 94.0051 158.019ZM89.046 155.486C88.7154 155.384 88.8426 154.827 88.868 154.599C89.0857 154.867 89.2894 155.146 89.4783 155.435C89.3358 155.463 89.1912 155.48 89.046 155.486ZM75.4148 150.318C75.7709 150.116 76.0252 149.989 76.4321 149.761C75.9998 150.546 75.9998 150.546 75.4148 150.318ZM53.9508 80.1782C53.4168 81.4954 55.0698 89.7278 53.5185 89.9811C53.2896 89.2719 53.2642 87.2708 52.3486 87.0428C51.2042 86.7388 51.3314 88.7906 51.1788 89.4238C48.8391 87.8027 47.7964 84.687 46.7029 82.2047C45.2787 79.0384 44.1597 75.7707 43.0916 72.4778C42.1761 69.6661 41.4132 66.8037 40.4976 63.9921C39.9127 62.2189 39.3024 60.4711 38.8955 58.6473C38.8192 58.2421 38.4886 57.2542 38.7683 56.8742C39.1752 56.3169 40.6502 56.9502 41.1334 57.1022C44.236 58.0394 47.4404 58.4194 50.6193 58.9766C54.1543 59.5846 57.6892 60.1925 61.2496 60.6484C62.1397 60.7751 63.0298 60.8764 63.9199 60.9777C64.5048 61.0537 65.3695 60.9777 65.929 61.231C67.0479 61.763 67.2768 63.7388 67.6837 64.7773C69.2096 68.6529 71.0407 72.3764 72.6428 76.2013C74.0924 79.6463 75.2114 83.3192 77.2968 86.4602C75.7454 85.7763 73.7618 82.1287 72.007 84.2311C71.2441 85.143 71.4476 86.3335 71.4984 87.4227C71.5747 88.9932 71.6001 90.5637 71.6001 92.1342C69.8962 91.7036 68.7518 89.7531 67.8363 88.3853C66.6557 86.6233 65.795 84.6685 65.2932 82.6099C65.0643 81.6727 64.4285 81.6474 63.869 81.0901C63.513 80.7355 63.335 80.2542 62.8263 80.7608C62.1906 81.4194 62.6229 83.2179 62.7246 84.0031C62.9789 85.8269 63.8436 88.6639 63.0044 90.3864C61.8599 92.7168 58.8336 86.8655 58.4776 86.0042C58.3504 85.5736 55.1206 77.3412 53.9508 80.1782ZM51.84 40.2828C52.0435 40.3081 52.2215 40.3334 52.4249 40.3588C52.2723 40.4854 51.9417 40.9667 51.6874 40.84C51.7383 40.6881 51.7891 40.4854 51.84 40.2828ZM61.9617 38.1297C61.9108 38.2057 61.8345 38.2563 61.7837 38.3323C61.5039 38.003 61.6056 37.4964 61.6056 37.0911C61.7729 37.1997 61.8989 37.361 61.9635 37.5493C62.028 37.7375 62.0274 37.9418 61.9617 38.1297ZM62.7755 41.9292V43.0438C62.038 42.7145 62.0125 42.5372 62.7755 41.9292ZM63.7164 43.3477C63.1824 43.1958 63.1315 43.0944 63.2078 42.2585C63.4113 42.7145 63.5638 43.0185 63.7164 43.3477ZM66.7682 51.6055C66.5393 52.1881 65.2423 50.8202 65.2932 50.4149C65.344 50.035 65.5475 49.9083 65.8272 50.1616C65.929 50.2376 65.7764 50.5416 65.8527 50.6429C66.0307 51.0229 66.463 51.3268 66.7682 51.6055ZM66.7936 55.0504C66.463 55.861 65.8781 54.5945 66.7428 54.5438C66.7861 54.709 66.8032 54.8799 66.7936 55.0504ZM66.1578 53.7586C66.0307 53.5958 65.9119 53.4267 65.8018 53.252C66.2341 53.3279 66.5902 53.9865 67.0479 53.5559C66.9716 54.2145 66.5139 54.2145 66.1578 53.7586ZM37.7256 43.2211C37.0136 42.4612 41.6166 41.9039 42.1761 41.7773C46.1703 40.796 50.0618 39.439 53.7982 37.7244C55.6038 36.9138 57.384 36.1032 59.1388 35.1913C59.9017 34.8114 60.9444 34.4821 61.5802 33.8995C62.038 33.4942 62.0125 33.1649 62.5975 32.9116C63.1061 32.709 63.1315 32.9116 63.3604 32.5316C63.4876 32.3037 63.6656 31.4678 63.5638 31.2145C63.335 30.5305 63.0298 31.0878 62.572 30.6319C62.2414 30.3026 62.3177 29.34 62.4194 28.9601C62.5395 29.1415 62.6097 29.3511 62.6229 29.568C63.1061 29.3147 62.9281 28.5041 63.4621 28.3521C64.0216 28.2001 63.9707 28.6561 64.1233 29.112C64.5557 28.4788 64.1996 27.9468 63.9707 27.3389C65.1406 27.1109 66.4122 26.9083 67.582 27.2882C68.4212 27.5669 69.1587 28.2761 70.0488 28.4028C70.9135 28.5294 71.0915 28.1242 71.7273 27.6935C72.2614 27.3642 72.6937 27.7442 72.9734 27.4909C72.7954 28.3521 71.3713 28.2508 71.5493 29.3147C71.6256 29.796 72.2359 30.2519 72.5157 30.6319C72.8543 31.113 73.1359 31.6315 73.3549 32.177C74.2704 34.2794 74.6519 36.6858 75.0334 38.9403C75.9743 44.4623 76.1015 50.0856 76.9916 55.633C77.4239 58.2674 77.8308 60.9018 78.0597 63.5868C78.1106 64.2454 78.5175 65.7652 78.1868 66.3985C77.9071 66.9304 77.2713 66.9304 76.7118 67.0824C75.6506 67.3502 74.6061 67.6801 73.5838 68.0703C72.6428 68.4249 72.3885 68.6275 71.7782 67.7663C71.1932 66.9304 70.9135 65.9172 70.5066 65.0053C69.9725 63.8401 69.3368 62.7002 68.7264 61.5603C69.9217 61.5603 70.6083 60.9271 70.5829 59.7112C70.5575 58.3687 69.4385 58.0394 68.9807 56.9502C68.5484 57.5328 68.4975 57.5328 68.1923 57.0009C67.8363 56.3676 67.582 55.2277 67.3531 54.5185C67.5057 54.6958 67.6583 54.8478 67.8363 55.0251C68.2432 54.4678 67.6074 53.6066 67.404 53.1C67.0734 52.3147 67.0225 51.4535 66.7173 50.6429C66.5393 50.2123 66.1578 49.8577 66.0561 49.4271C66.0053 49.1231 66.2341 48.8445 66.1833 48.5405C66.0815 48.0086 65.4712 47.426 65.2932 46.894C65.0134 46.0581 64.6828 45.3235 64.3268 44.513C63.8436 43.3984 63.9453 42.2585 63.869 41.068C63.7673 39.8521 63.3858 38.6869 63.2587 37.4711C63.1569 36.6352 63.4621 35.5713 62.8263 34.9127C62.75 36.0272 63.0806 36.0019 62.0125 36.2046C60.8173 36.4325 59.9526 37.3191 58.8082 37.5977C58.5793 37.6484 58.4013 36.6352 58.503 38.0284C57.969 37.6231 56.7991 38.1297 57.2314 38.3577C56.9008 38.7123 56.2651 38.459 56.1379 38.9909C55.0189 37.9017 53.2387 41.5746 51.9163 39.6748C51.6874 40.9667 50.7465 41.7519 49.4749 41.9039C48.8391 41.9799 48.4576 42.2079 47.8727 42.3852C47.7456 42.4359 47.7201 42.5878 47.5675 42.6385C47.3641 42.7145 47.0589 42.5118 46.9063 42.5372C46.6012 42.6132 46.2705 43.0185 45.8382 43.0944C45.341 43.1704 44.835 43.1704 44.3378 43.0944C43.7274 43.0185 43.4477 42.9425 42.8628 43.1451C42.3287 43.3224 41.7438 43.829 41.2606 43.2718C40.5231 44.5383 38.6666 44.209 37.7256 43.2211ZM73.9398 26.9336C73.3549 26.8576 73.7618 26.351 74.0415 26.199C74.7791 25.7937 74.5756 27.0096 73.9398 26.9336ZM41.1334 31.7717C44.6175 26.7816 50.5684 23.3367 55.8073 20.449C58.6556 18.8785 61.5802 17.3334 64.5811 16.0415C66.0815 15.4083 67.582 14.775 69.1079 14.2177C69.9217 13.9138 70.7355 13.6351 71.5747 13.3818C71.8036 13.3058 72.2105 13.0779 72.4648 13.1032C72.4139 13.1032 73.0497 13.2805 72.9226 13.3312C73.3295 13.1539 73.5329 12.6979 74.0161 12.4953C74.5962 12.292 75.2069 12.1892 75.8217 12.1913C76.3304 12.166 76.7881 12.3939 77.2713 12.3939C77.6019 12.3939 77.8562 12.242 78.1868 12.242C78.3394 12.242 78.3394 12.4699 78.4412 12.4953C78.492 12.4953 78.8989 12.3433 78.9244 12.3433C79.0769 12.4446 79.2295 12.8246 79.3567 12.9765C79.7961 13.3951 80.3148 13.7224 80.8826 13.9391C81.5438 14.2177 83.146 14.4964 82.383 15.5349C82.9171 15.4589 83.146 15.9402 82.4847 16.0415C82.1287 16.1175 81.9761 15.7882 81.7218 15.5602C81.1114 15.0536 79.6364 14.3191 78.7463 14.3444C78.2631 14.3697 77.8562 14.7497 77.3985 14.8763C76.9407 15.003 76.7373 14.8003 76.3304 14.8257C75.8726 14.8763 75.5674 15.2563 75.1351 15.3323C74.7282 15.4083 74.4993 15.1296 74.1178 15.1296C73.6855 15.155 73.2532 15.5349 72.8463 15.6616C72.2209 15.8224 71.6153 16.0518 71.0406 16.3455C69.7945 17.0041 68.3704 17.2321 67.0734 17.7893C66.0307 18.2453 64.8608 18.4733 63.8944 18.9545C62.8263 19.5118 61.7582 20.0437 60.7155 20.6517C59.9526 21.0823 58.4267 21.2343 57.5875 21.1329C57.5875 22.6528 56.8245 21.5889 56.0616 22.2475C56.2401 22.404 56.4474 22.5244 56.672 22.6021C55.8582 22.9314 55.0952 23.3367 54.2814 23.7167C53.4676 24.0966 52.5775 24.1979 52.0435 24.9325C51.5348 25.6164 51.7128 25.2618 50.9753 25.5151C50.6447 25.6418 50.3396 26.0217 50.0852 26.275C49.6529 26.7056 49.5766 27.3642 49.3223 26.4777C49.246 26.579 48.9663 27.2629 48.9154 27.2882C48.6102 26.9589 48.5594 27.3389 48.4068 27.4909C48.4831 27.7949 48.3559 27.9722 48.0253 28.0735L47.4913 28.4534C46.8555 28.9094 46.0162 29.2894 45.5839 29.9479C45.505 29.9103 45.435 29.8564 45.3786 29.7898C45.3222 29.7232 45.2805 29.6454 45.2565 29.5616C45.2325 29.4779 45.2266 29.3899 45.2392 29.3037C45.2518 29.2175 45.2826 29.1349 45.3296 29.0614C44.6938 29.644 43.9309 30.2519 43.7528 31.1638C43.6696 31.0903 43.5752 31.0305 43.4731 30.9865C43.2188 31.1638 43.5494 31.6704 43.7274 31.7971C44.4395 31.5184 43.5494 31.6198 44.0326 31.6704C44.1719 31.7276 44.3168 31.7701 44.4649 31.7971C44.8984 31.7977 45.3315 31.7724 45.7619 31.7211C46.7344 31.5475 47.6944 31.3106 48.6357 31.0118C49.6529 30.7079 50.6956 30.4039 51.6874 30.0239C52.5012 29.72 53.315 29.3653 54.1288 29.036C54.4594 28.9094 54.79 28.7574 55.0952 28.6308C55.7056 28.3775 56.0362 27.9468 55.9599 28.6814C56.4431 28.6054 56.8754 27.8962 57.2569 27.6175C57.786 27.2232 58.3797 26.9233 59.0116 26.731C59.2377 26.6335 59.4782 26.5736 59.7237 26.5537C59.8509 26.5537 59.9272 26.9083 60.0035 26.9083C60.5629 26.7816 60.3086 26.4523 60.563 26.0217C61.1224 25.0338 62.6229 24.5019 63.5384 23.9446C64.1233 23.59 64.5302 23.1087 65.0643 22.7288C65.2714 22.5787 65.504 22.4671 65.7509 22.3995C65.9544 22.3488 66.2087 22.8048 66.3359 22.3488C65.9158 22.1358 65.4826 21.9497 65.0389 21.7915C64.7083 21.6902 65.1152 21.3609 64.6065 21.5636C64.4031 21.6396 64.3268 22.0448 64.2505 22.1968C63.691 21.6902 62.0888 22.2222 61.4276 22.4248C61.3768 22.4501 61.1733 22.3235 61.0716 22.3488C60.6901 22.3741 60.4104 22.9061 60.156 23.1087C59.4694 23.6913 58.7319 23.9446 57.9181 24.2993C58.147 23.0834 59.7746 22.6021 60.7155 22.1208C62.1143 21.4369 63.4113 20.5757 64.9371 20.2211C65.9544 19.9677 67.3022 19.7904 67.7346 20.9556C67.9889 21.6649 68.0398 23.4127 67.1497 23.742C67.0479 23.4127 67.3531 23.1341 67.4548 22.8554C66.5647 23.1847 66.4122 24.2486 65.7509 24.8059C65.4716 24.9881 65.237 25.2305 65.0643 25.5151C64.9111 25.8618 64.6755 26.1661 64.3776 26.4017C63.691 24.9325 63.7927 26.9336 63.4367 27.1869C63.5893 27.0856 62.8518 27.3896 62.9535 27.3389C62.9281 27.3389 62.5975 26.8576 62.394 26.8576C62.038 26.883 62.0888 27.2882 61.9108 27.4909C61.3005 28.1748 60.5375 28.6308 59.5711 28.5294C59.5457 29.0107 59.6983 29.5933 59.0371 29.644L58.9608 28.5548C58.6047 28.9347 58.1215 29.264 57.8164 29.6946C57.4858 30.1759 57.5112 30.4799 56.9517 30.8092C56.3668 31.1385 55.1206 31.8224 54.434 31.8731C54.4782 31.8263 54.5111 31.7701 54.5302 31.7087C54.5494 31.6474 54.5542 31.5825 54.5444 31.519C54.5346 31.4556 54.5104 31.3951 54.4736 31.3424C54.4369 31.2896 54.3885 31.2458 54.3323 31.2145C53.9762 31.5691 53.4676 31.6198 53.0861 31.9237C54.3831 32.4557 52.0943 32.4303 51.7891 32.5063C51.5857 32.557 51.4331 32.7343 51.2297 32.7596C50.9753 32.8103 50.9245 32.5316 50.721 32.633C50.3904 32.7596 50.5176 33.1142 50.187 33.2916C49.9327 33.4182 49.5258 33.4182 49.246 33.5449C48.5848 33.8488 47.1606 34.4821 46.7029 33.6969C46.474 35.0394 44.1343 34.2288 43.2951 34.1275C42.0744 33.8995 40.0399 33.3422 41.1334 31.7717ZM46.0925 17.916C46.1263 17.8818 46.1669 17.8551 46.2117 17.8377C46.2565 17.8203 46.3045 17.8126 46.3526 17.8149C46.4006 17.8173 46.4476 17.8298 46.4904 17.8516C46.5333 17.8734 46.571 17.904 46.6012 17.9413C46.3723 16.7254 48.1779 16.1175 48.9663 15.6109C50.009 14.927 51.2297 13.5845 52.6029 13.6858C52.3741 13.8631 52.1452 14.0404 51.9163 14.1924C52.2469 14.2431 52.5775 14.2684 52.9081 14.3191C52.7301 14.5977 52.5267 14.8763 52.3486 15.1296C52.0435 13.4578 50.4413 15.5602 49.9835 15.8895C49.5093 16.1552 49.0584 16.4602 48.6357 16.8014C48.2288 17.1814 47.8473 17.8653 47.1861 17.5107C47.1352 18.4732 46.3468 18.2199 45.8128 18.7519C45.7365 18.4226 45.9399 18.1946 46.0925 17.916ZM53.1624 13.1285C54.8155 12.5206 56.2396 11.3807 57.7909 10.5702C59.266 9.78491 60.7918 9.10098 62.2923 8.3664C63.0552 7.98645 64.4539 7.04922 65.344 7.5305C66.5139 8.18909 64.9117 8.39173 64.4794 8.61971C64.3268 7.60649 63.7673 8.51838 64.0979 9.07565C63.2078 8.6957 61.2242 10.2155 60.3595 10.6208C60.156 10.7221 60.2578 10.7728 60.0289 10.8741C59.978 10.8994 59.4185 11.0261 59.2405 11.0768C58.4267 11.3554 57.8927 11.1274 57.5621 12.1153L57.3332 11.4314C56.8245 12.5713 55.2987 13.0525 54.3068 13.7365C54.0525 13.9138 53.3405 14.5724 53.0098 14.4457C52.5775 14.2684 52.7555 13.2805 53.1624 13.1285ZM82.9171 16.5481C83.6037 16.5988 82.9425 16.9281 83.1205 17.1307C83.0951 17.1054 83.5274 17.4854 83.4766 17.384C83.5529 17.5107 83.7309 17.5107 83.8326 17.7893C84.1632 18.7519 82.7136 19.7651 82.2304 20.297C81.2895 21.3609 80.73 22.7034 79.7636 23.742C79.3629 24.1954 78.8434 24.5287 78.2631 24.7045C77.8308 24.8312 77.3731 24.7045 76.9916 25.1098C76.661 25.4391 76.7373 25.6418 76.3812 25.8191C75.7709 26.123 75.4911 25.8697 74.8808 26.5283C74.3722 25.1098 75.8472 25.1352 76.6355 24.3499C77.7037 23.2607 78.8989 22.1715 79.8907 21.0063C80.7808 19.9677 81.1369 19.0812 81.5692 17.8147C81.6964 17.4094 81.849 16.5735 82.2304 16.3202C82.8408 15.9402 82.4847 16.5228 82.9171 16.5481ZM86.3503 53.1C88.2041 51.0255 90.4181 49.3008 92.8862 48.0086C93.7762 47.5779 95.0224 46.9953 95.9125 47.6793C96.8026 48.3378 96.6246 49.655 96.2431 50.5669C95.887 50.4403 96.2177 49.1738 96.0396 48.8698C95.6582 48.1859 94.8189 48.5405 94.234 48.7685C93.5767 49.0087 92.9658 49.36 92.4284 49.807C92.2249 50.0097 91.7926 50.187 91.6654 50.3136C91.462 50.2376 91.3348 50.2883 91.3094 50.4909C91.3305 50.5528 91.339 50.6182 91.3347 50.6834C91.3303 50.7486 91.3131 50.8123 91.284 50.8709C91.2585 50.9216 90.9788 50.7442 90.9534 50.7696C90.7754 50.9216 90.6228 51.0989 90.4447 51.2255C90.0874 51.4511 89.7624 51.7238 89.4783 52.0361C88.868 52.796 88.0542 53.2266 87.4438 53.9359C87.3207 54.1312 87.2102 54.3343 87.1132 54.5438C86.8081 54.8984 86.3503 55.2024 85.9943 55.5824C85.3893 56.1929 84.7343 56.7521 84.036 57.2542C83.6992 57.4884 83.4065 57.7799 83.1714 58.1154C83.0697 58.2674 83.0188 59.1286 83.0188 59.1286C82.3322 59.8885 82.4593 58.3687 82.5102 58.1914C83.0951 56.1396 84.977 54.5945 86.3503 53.1ZM82.5865 66.8797C82.6628 67.209 82.7391 67.4623 82.8408 67.7916C82.2813 67.3357 82.2813 67.3357 82.5865 66.8797ZM82.0015 67.9183L81.3912 68.5262C80.9334 68.0449 82.0778 67.8423 82.0015 67.9183ZM81.6964 59.8379C81.4929 60.6991 80.7046 61.7377 80.1705 62.4216C80.2214 62.3456 79.7127 62.4976 79.6619 62.5229C79.4584 62.6242 79.9416 63.3588 79.255 63.0295C79.0261 63.1562 79.4838 63.7134 79.1532 63.9414C78.2377 61.839 80.7554 60.0152 81.7218 58.47C82.2304 58.9006 81.8235 59.3566 81.6964 59.8379ZM75.6946 71.1859C76.3812 71.3632 76.7118 71.2619 77.1696 70.578C77.4493 70.1727 77.5511 69.4888 78.1614 70.0714L78.2631 69.3115C79.1532 69.6661 79.0769 70.9833 79.4838 71.7179C79.6619 70.882 80.1196 68.5769 81.4929 68.9568C83.0442 69.3621 80.4757 72.0218 80.2214 72.6804C79.6873 71.8698 79.8907 72.6298 79.5093 72.7311C79.1532 72.8324 78.6192 72.5791 78.2123 72.6044C76.9407 72.6804 75.8217 73.2377 74.6519 73.719C74.3467 72.9337 74.067 72.1485 73.7618 71.3379C74.4484 71.3886 75.8726 69.5648 76.0506 70.9073C75.542 70.8313 75.3894 70.8313 75.1605 71.3126C75.329 71.2375 75.5102 71.1945 75.6946 71.1859ZM78.5429 81.4954C79.0168 81.5301 79.4922 81.5386 79.967 81.5207C80.8571 81.1914 80.5265 80.1782 80.73 79.4436C81.1114 79.7729 80.908 80.4062 81.0097 80.8368C81.1369 81.3434 81.5438 81.7994 81.5692 82.3566C81.6455 83.5978 80.6283 83.3192 79.8399 83.7245C79.1787 84.0791 79.1024 84.5097 78.5429 83.5725C78.3903 83.3192 78.0597 82.6606 78.0851 82.3313C78.136 82.0527 78.6446 81.774 78.5429 81.4954ZM79.611 86.8908L79.255 86.4855C80.3485 86.8148 79.7127 86.3082 79.9416 85.6496C80.7808 86.2069 81.4675 86.7641 82.1033 85.6749L83.2477 90.2597C82.4847 90.4371 81.4929 89.2719 80.9589 88.8666C80.6537 88.6386 78.9752 87.7267 79.9925 87.4734C79.8653 87.2708 79.7382 87.0934 79.611 86.8908ZM87.0624 72.5284C86.4266 73.1364 85.7908 73.4657 85.1042 73.9216C84.4938 74.3269 84.6973 74.8082 84.1886 75.2641C83.8326 75.5681 83.0188 75.872 82.5865 76.1254C81.8235 76.5306 81.1369 76.632 80.3485 76.1507C80.552 77.8732 79.3821 77.9998 77.9071 78.3544C77.195 78.5064 76.7881 78.7597 76.2795 78.1265C75.9235 77.6958 75.7963 76.8853 76.2286 76.5053C76.9153 75.872 78.7463 76.1 79.611 75.6947C80.2722 75.3908 80.9589 73.6936 81.7727 74.3016C81.3403 73.6176 81.849 73.4403 82.205 72.959C82.6119 72.4271 82.8662 71.8192 83.2731 71.2872C84.1457 70.24 85.2065 69.3638 86.4012 68.7035C87.393 68.1716 87.9016 68.5515 88.0542 69.6661C88.1305 70.2234 88.1305 71.0593 87.8253 71.5405C87.7236 71.6925 87.393 71.6925 87.2913 71.8445C87.1641 72.0978 87.3167 72.2751 87.0624 72.5284ZM98.6845 59.2046C99.4729 59.8125 99.3966 61.1044 99.5237 61.9656C99.7017 63.2068 99.5746 64.3974 99.5492 65.6385C99.5237 66.9557 98.8879 67.817 98.5828 69.0328C98.2522 70.4007 97.8198 71.1353 97.0569 72.2751C97.8707 72.4018 96.65 74.8588 96.4465 75.1628C96.2177 75.5174 94.4629 77.0879 95.2258 77.0879C94.8189 77.6452 94.3612 78.2025 93.9288 78.7344C93.7762 78.937 93.4711 79.0384 93.3439 79.165C93.0896 79.469 93.0642 79.7476 92.8862 80.0769C92.6064 80.6088 92.5047 80.4569 92.1232 80.8621C91.8689 81.1408 91.6909 81.4954 91.4366 81.7487C90.6228 82.5846 90.521 81.9007 90.0378 81.2674C90.0051 81.3486 89.9534 81.4208 89.8871 81.478C89.8207 81.5353 89.7417 81.576 89.6564 81.5967C89.5038 80.8875 90.4956 80.1529 90.9279 79.7223C91.6146 79.013 92.2249 78.2025 92.8353 77.4425C94.14 75.7745 95.2651 73.9746 96.1922 72.0725C97.192 70.0223 97.9187 67.8508 98.3539 65.6132C98.6591 63.9161 98.9642 61.0284 96.6754 60.5978C95.0224 60.2938 93.1913 61.2817 91.8435 62.0923C91.0042 62.5736 90.1904 63.0802 89.3766 63.6374C88.512 64.2454 87.7745 65.0813 86.8335 65.5626C87.3421 65.3093 85.6637 66.0945 85.918 65.8665C85.7908 65.9678 85.8925 66.2971 85.8162 66.4238C85.6388 66.625 85.4226 66.7886 85.1805 66.9051C84.7481 67.2344 84.0615 67.5637 83.8835 68.0703C81.1623 66.1452 86.5537 62.7255 87.9525 61.8643C90.7499 60.1418 95.5056 56.7729 98.6845 59.2046ZM106.009 40.4854C105.983 39.0922 107.128 37.2178 107.891 36.0779C108.272 35.5206 108.857 35.546 109.086 34.8874C109.213 34.5074 109.035 34.1275 109.086 33.7475C109.165 33.2591 109.347 32.7929 109.62 32.3797C111.934 28.4028 114.757 24.9072 117.758 21.4369C119.233 19.7398 120.632 17.9666 122.234 16.3455C122.895 15.6869 124.701 13.2805 125.718 13.5085C126.252 13.6351 126.583 14.471 126.812 14.8763C127.214 15.5657 127.664 16.2259 128.159 16.8521C129.432 18.547 130.979 20.0193 132.737 21.2089C133.831 21.9689 134.95 22.6781 136.043 23.4633C136.933 24.0966 138.281 24.8565 138.917 25.7431C139.553 26.655 138.612 27.4149 138.103 28.1748C137.315 29.34 136.577 30.5559 135.789 31.7211C135.484 31.4931 135.56 31.0372 135.331 30.7332C135.118 30.5143 134.869 30.3342 134.594 30.2012C134.085 29.8973 133.576 29.5173 133.118 30.0239C132.305 30.9105 133.424 33.0129 134.619 32.785C134.772 33.6715 132.381 35.1154 131.771 35.5966C129.94 37.0911 128.058 38.383 125.642 38.5096C124.653 38.5828 123.659 38.4623 122.717 38.155C122.245 38.0161 121.811 37.7737 121.446 37.4458C121.039 37.0405 120.937 36.4325 120.53 36.0273C120.174 35.6726 119.716 35.622 119.36 35.2673C119.004 34.9127 118.852 34.3554 118.699 33.8995C118.419 33.0129 118.368 32.0757 118.114 31.1891C117.961 30.6572 117.834 29.9226 117.3 30.4546C116.563 31.2145 116.919 33.5702 117.122 34.4568C117.402 35.7486 118.038 36.7618 118.699 37.8764C119.436 39.0669 119.691 40.1814 119.818 41.5746C120.076 44.1514 120.809 46.6588 121.98 48.9711C122.463 49.959 123.048 50.8709 123.582 51.8334C123.836 52.2894 124.37 53.8092 125.057 53.8092C126.125 53.7839 124.599 50.6936 124.396 50.1616C123.226 47.274 122.107 44.2343 121.852 41.0933C123.531 41.524 125.362 41.9292 127.117 41.6506C125.998 44.1583 127.168 46.6407 127.015 49.2244C126.939 50.5163 126.888 51.7068 126.913 52.9987C126.939 54.1385 126.43 55.2531 125.972 56.2916C125.082 58.318 123.989 60.8258 122.361 62.3709C120.988 63.6628 119.157 63.7641 117.377 63.4601C113.307 62.7762 110.663 59.6606 108.959 56.1396C107.855 53.8669 107.035 51.4679 106.517 48.9964C105.907 46.2354 106.06 43.3731 106.009 40.4854ZM111.273 21.2849C107.484 18.5492 112.977 15.4589 115.8 15.8895C116.461 15.9909 117.656 16.2695 117.605 17.1054C117.555 17.8147 116.385 18.5746 115.927 19.0052C114.655 20.2211 113.333 22.7794 111.273 21.2849ZM138.815 81.926C138.688 81.7994 137.62 82.1033 138.052 81.4701C138.408 80.9635 139.375 81.5967 139.731 81.7234C139.425 81.926 139.171 82.23 138.815 81.926ZM123.048 114.932C122.717 114.982 122.386 114.096 123.556 114.754C123.378 114.805 123.226 114.881 123.048 114.932ZM123.022 129.193C123.073 129.573 123.175 129.851 122.895 130.13C122.666 129.826 122.641 129.421 123.022 129.193ZM123.505 135.069C123.48 135.272 123.429 135.5 123.404 135.703C123.124 135.576 122.87 135.424 122.59 135.297L123.505 135.069ZM123.836 130.105C124.243 130.257 124.04 129.775 124.345 129.699C124.392 129.932 124.389 130.172 124.336 130.403C124.284 130.634 124.183 130.852 124.04 131.042C123.955 130.733 123.887 130.42 123.836 130.105ZM134.136 94.5659C133.576 94.4899 133.475 95.0979 133.068 95.3258C132.788 95.4778 131.974 95.3512 131.822 95.6551C132.025 95.7058 132.228 95.7818 132.432 95.8324C131.974 96.0857 131.491 96.3391 131.033 96.5924C132.152 96.5924 133.322 96.0604 134.441 96.2124C134.659 96.2319 134.871 96.296 135.064 96.4006C135.256 96.5051 135.425 96.648 135.56 96.8203C135.751 97.0815 135.874 97.3863 135.916 97.7069C135.941 98.0109 135.712 98.2388 135.738 98.3655C136.247 98.3908 136.17 99.2014 136.069 99.5307C135.814 100.265 134.848 101.405 133.983 100.924C134.339 101.43 134.263 101.734 133.703 102.038C133.754 101.861 133.78 101.557 133.5 101.608C133.424 101.886 133.449 102.342 133.22 102.57C132.966 102.824 132.712 102.52 132.483 102.697C132.178 102.874 132.279 103.178 132.05 103.381C131.745 103.66 131.694 103.457 131.338 103.508C130.779 103.584 131.135 103.229 130.677 103.685C130.525 103.837 130.55 104.242 130.296 104.47C129.812 104.901 128.515 105.357 128.058 104.799C126.939 106.547 123.607 106.978 122.056 105.585C119.589 103.381 124.192 98.8721 125.718 97.4283C127.244 95.9844 128.948 94.7686 130.677 93.5527C131.643 92.8688 132.661 92.2609 133.678 91.6529C134.314 91.273 135.102 90.589 135.891 90.665C136.577 90.7157 137.188 91.273 137.925 91.3743C138.459 91.4503 139.476 91.5769 138.815 92.2862C138.51 92.6155 137.264 93.1727 136.857 93.2487C136.603 93.2994 136.348 93.1981 136.119 93.2487C135.712 93.3247 135.433 93.6794 134.975 93.6287C135.102 94.3379 134.848 94.6672 134.136 94.5659ZM141.485 69.9447C141.485 70.4513 140.544 70.3247 140.341 70.1474C140.01 69.8687 140.01 68.9822 139.883 68.6022C140.417 68.7542 141.485 69.2608 141.485 69.9447ZM133.831 52.8213C135.818 51.1801 137.926 49.6898 140.138 48.3632C140.926 47.8819 142.045 46.9447 143.037 47.046C143.444 47.0967 144.308 47.5779 144.003 48.0845C143.952 48.1859 143.494 48.2112 143.342 48.2872C143.189 48.3632 143.062 48.5912 142.91 48.6925C141.867 49.4524 140.621 49.9083 139.578 50.6936C138.713 51.3268 137.925 52.0361 137.009 52.5934C136.119 53.1253 135.204 53.4546 134.365 54.0372C134.39 54.0372 133.271 54.4172 133.5 54.4931C132.508 54.1892 133.551 53.0493 133.831 52.8213ZM147.131 52.2134C148.326 51.7321 149.471 51.1749 150.717 50.8456C151.335 50.6632 151.981 50.5945 152.624 50.6429C152.638 50.601 152.662 50.5631 152.694 50.5325C152.726 50.5018 152.765 50.4793 152.807 50.4669C152.85 50.4544 152.895 50.4524 152.938 50.461C152.981 50.4696 153.022 50.4886 153.057 50.5163C153.198 50.7291 153.39 50.9033 153.616 51.0229C153.972 51.3015 155.269 51.6561 155.015 52.2387C154.837 52.644 153.54 52.6694 153.184 52.7453C152.09 53.024 151.098 53.6066 149.979 53.7586C149.823 53.7483 149.668 53.7141 149.522 53.6572C149.089 53.7586 148.733 54.1892 148.352 54.4172C147.538 54.8731 146.394 54.9491 145.809 55.7597C147.665 57.0262 149.293 55.7597 150.946 54.8224C151.936 54.2618 152.985 53.8115 154.074 53.4799C154.633 53.2773 155.193 53.1 155.778 52.9227C156.016 52.8369 156.264 52.7774 156.515 52.7453C156.617 52.7135 156.726 52.7221 156.821 52.7693C156.916 52.8166 156.989 52.8989 157.024 52.9987C157.711 52.9733 157.761 52.5427 158.194 53.3533C158.779 54.4931 157.889 54.4172 157.049 54.5691C155.88 54.7718 154.71 55.2024 153.54 55.481C153.286 55.557 150.946 56.089 150.946 56.1143C150.844 56.8489 157.507 56.165 158.067 56.0636C159.084 55.861 160.152 55.3291 161.195 55.4557C162.008 55.557 163.814 56.7222 162.543 57.5075C162.288 56.3169 161.424 57.3048 160.966 57.7101C160.355 58.2421 159.491 58.1914 158.677 58.4194C157.558 58.698 154.659 59.7872 153.845 58.4194C154.099 59.6352 149.496 59.0273 148.86 58.9766C148.25 58.926 147.436 59.078 146.851 58.9006C146.47 58.774 146.241 58.546 145.885 58.47C145.791 58.5608 145.678 58.63 145.554 58.6727C145.37 58.578 145.198 58.4587 145.046 58.318C143.825 57.7608 141.892 57.4315 142.579 55.633C143.266 53.8852 145.58 52.8467 147.131 52.2134ZM158.702 53.252C158.728 53.1399 158.762 53.0298 158.804 52.9227C158.804 53.252 159.592 53.3786 159.491 53.8092C159.287 54.7465 158.397 53.3533 158.321 53.2013C158.446 53.2306 158.574 53.2476 158.702 53.252ZM163.433 54.7971C163.534 55.1771 164.552 55.9876 164.297 56.165C163.89 55.633 162.771 55.8863 163.433 54.7971ZM146.038 89.5505C146.419 88.8159 147.563 90.0824 147.436 88.7906C148.047 88.8412 147.665 89.3225 148.403 89.1199C148.682 89.0439 148.86 88.7399 149.217 88.6639C149.42 88.6512 149.624 88.6512 149.827 88.6639C150.285 88.6386 152.039 88.6133 150.819 88.0053C151.505 87.5494 151.582 87.7774 152.192 88.1826C152.039 87.3467 152.929 87.828 153.362 87.9293C153.057 87.4481 153.794 86.9415 154.048 86.6122C153.972 87.1188 153.998 87.676 154.735 87.3467C154.913 87.2708 154.888 86.9161 155.015 86.8655C155.269 86.7641 155.422 86.9415 155.523 86.9415C155.684 86.9693 155.85 86.9606 156.007 86.9161C156.261 86.8148 156.134 86.4855 156.464 86.4348C156.668 86.4095 156.82 86.7135 157.075 86.7135C157.202 86.7135 157.431 86.5868 157.533 86.5868C157.558 86.5868 157.685 86.2829 157.838 86.2829C158.067 86.2829 158.143 86.8655 158.245 86.9921C158.638 87.5233 159.164 87.9425 159.771 88.208C158.677 89.1959 156.49 89.0945 155.117 89.4238C154.403 89.6101 153.713 89.8734 153.057 90.2091C152.895 90.3146 152.749 90.4425 152.624 90.589C152.527 90.5276 152.433 90.4599 152.345 90.3864C151.963 90.4117 151.632 90.2344 151.2 90.2851C149.903 90.513 148.886 91.4756 147.589 91.6782C147.004 91.7796 146.521 91.9062 146.139 91.3996C145.732 90.9943 145.809 90.0318 146.038 89.5505ZM144.257 83.5978C144.563 83.8511 144.207 84.6364 144.766 84.5604C145.173 84.5097 145.097 83.8765 145.402 83.7498C145.809 83.5725 146.063 83.9778 146.47 83.9525C147.207 83.8765 147.157 83.2432 146.546 82.9646C147.182 82.7873 147.385 83.5472 147.945 83.5472C148.682 83.5472 148.504 82.6606 149.14 82.5086C149.42 82.458 149.318 82.8379 149.496 82.8886C149.852 82.9899 150.107 82.8126 150.412 82.6606C150.692 82.534 150.895 82.2553 151.2 82.1793C151.353 82.1287 151.709 82.2047 151.811 82.1287C152.014 81.9767 152.192 81.3941 152.395 81.3181C152.618 81.471 152.857 81.5984 153.108 81.6981C153.057 81.9514 152.904 81.9767 152.701 81.774C152.701 82.3313 154.252 82.5086 153.947 81.8247C154.786 82.1793 154.15 82.3566 154.074 82.8379C154.048 83.0406 153.921 83.0152 153.972 83.2432C153.998 83.3445 154.43 83.2685 154.43 83.3952C154.405 84.2311 151.734 84.4844 151.226 84.5604C150.189 84.7181 149.168 84.9639 148.174 85.295C147.411 85.523 146.139 86.2069 145.326 86.1562C144.181 86.1055 144.029 84.6111 144.257 83.5978ZM141.689 75.0868C141.409 74.1496 142.299 72.2498 143.469 72.4778C143.749 72.5284 143.825 72.7817 144.054 72.8831C144.359 73.035 144.868 72.959 145.148 73.111C145.758 73.4403 145.453 74.3269 146.063 74.6309C145.097 74.8588 142.147 76.556 141.689 75.0868ZM142.808 78.6837C143.215 78.4558 143.901 78.4304 144.181 77.9998C144.334 78.1011 144.588 78.6837 144.842 78.5824C144.969 78.5317 145.071 78.2278 145.071 78.2278C145.3 78.2278 145.351 77.9238 145.682 77.9491C145.987 77.9745 146.343 78.3544 146.623 78.5064C146.572 77.5692 146.826 77.4932 147.563 76.9866C147.741 76.8853 147.869 76.4547 148.021 76.3027C147.869 77.2906 148.25 77.2906 149.039 77.4425C149.49 77.5067 149.915 77.6947 150.265 77.9855C150.615 78.2762 150.877 78.6583 151.022 79.089C150.183 78.937 149.089 79.1143 148.759 80.0262C148.098 78.8104 145.656 80.4822 144.868 80.8368C144.283 81.0901 143.596 81.4447 143.113 80.8368C142.757 80.4062 142.96 79.9249 142.986 79.545C142.986 79.4183 143.113 79.4183 143.088 79.241C143.088 79.0384 142.808 78.937 142.808 78.6837ZM151.76 97.8589C151.531 97.9349 150.386 97.9855 150.386 97.6056C150.386 97.2763 152.395 97.6056 151.76 97.8589ZM149.903 96.643C149.038 97.175 148.072 95.3005 147.767 94.7686C148.682 94.8952 149.115 94.1353 149.649 93.5527C150.157 94.6672 150.92 94.0846 151.734 93.7047C152.701 93.2741 153.743 93.2741 154.71 92.9194C155.015 92.8181 155.295 92.6408 155.6 92.5142C155.829 92.4128 156.083 92.3368 156.312 92.2355C156.394 92.1712 156.455 92.0836 156.487 91.9842C156.519 91.8848 156.52 91.7782 156.49 91.6782C156.414 91.5009 156.464 91.3743 156.642 91.3236C156.866 91.3902 157.096 91.4327 157.329 91.4503C157.711 91.3743 158.245 91.0197 157.787 90.6397C158.27 90.2091 158.753 90.6397 159.236 90.8423C159.135 90.513 159.008 90.2091 158.906 89.8798C159.135 89.9811 159.821 90.9437 159.898 90.9437C160.355 90.9183 160.305 90.3104 160.559 90.0824C160.711 90.2597 160.762 91.6276 161.322 91.1716C161.576 90.969 161.042 90.3104 160.889 90.1584C161.551 90.3104 162.136 91.0956 162.314 91.7289C162.002 91.7749 161.684 91.7025 161.424 91.5263C161.246 92.3875 162.848 92.0329 163.102 92.4888C163.611 93.3754 160.33 93.9833 159.898 94.0593C159.033 94.2113 158.041 94.2873 157.253 94.6672C156.49 95.0219 156.312 95.1232 155.447 95.1992C154.455 95.2752 153.464 95.6045 152.497 95.8578C151.709 96.0351 150.666 96.1871 149.903 96.643ZM168.239 65.2586C169.028 64.98 171.698 63.5108 172.384 64.144C172.514 64.4958 172.676 64.835 172.868 65.1573C172.918 65.7652 172.893 65.9932 172.156 66.2971C171.622 66.4998 171.164 66.0692 170.681 66.2465C170.146 66.4491 170.528 66.7784 170.248 67.0064C169.943 67.2597 169.384 67.3863 169.002 67.4877C168.087 67.7663 167.196 67.9943 166.281 68.2982C164.45 68.9062 162.517 69.4634 160.635 69.8941C159.236 70.2234 156.846 71.0086 155.549 70.0714C155.422 70.6033 155.117 70.5273 154.684 70.6033C154.273 70.7015 153.857 70.7776 153.438 70.8313C152.929 70.8566 151.556 70.7046 151.76 70.0207C151.709 70.2234 152.828 69.5648 152.65 69.5141C153.133 69.6154 152.98 69.3621 153.362 69.2355C153.87 69.0582 154.405 69.0582 154.939 68.8808C156.261 68.4249 157.355 67.817 158.753 67.513C161.958 66.8797 165.187 66.3478 168.239 65.2586ZM40.6502 137.096C40.3959 137.096 40.1925 136.361 40.9808 136.893C40.8791 136.944 40.7774 137.02 40.6502 137.096ZM34.4704 136.133C34.1144 136.235 33.9872 136.032 34.0635 135.551C34.5213 135.373 34.6739 135.551 34.4704 136.133ZM29.6639 135.171C29.5622 134.74 29.8928 134.639 30.1725 134.461C30.1725 135.019 30.1725 135.019 29.6639 135.171ZM17.6349 131.65C17.1517 131.548 16.5159 131.067 16.3888 131.852C16.3125 131.675 15.9056 130.814 16.0836 130.611C16.1853 130.51 16.5159 130.991 16.4905 130.94C16.9228 130.079 17.6349 131.118 18.0672 131.422C17.9146 131.498 17.762 131.574 17.6349 131.65ZM143.723 37.1418C143.901 36.7872 144.079 36.6858 144.308 36.8125C143.952 37.6231 142.757 38.079 143.723 37.1418ZM152.116 29.3907C152.421 29.9479 151.963 30.1759 151.632 30.6572C151.836 30.1506 151.963 29.8213 152.116 29.3907ZM188.584 83.9271C189.652 83.9271 191.967 83.3699 192.602 84.5857C193.035 83.7498 193.518 85.3203 193.899 85.5736C193.95 85.5989 194.205 85.3963 194.332 85.4723C194.525 85.6408 194.681 85.8479 194.789 86.0802C195.12 86.6375 195.247 87.2961 195.425 87.904C193.543 87.904 191.611 87.4734 189.729 87.2961C188.502 87.2032 187.27 87.1863 186.041 87.2454C185.787 87.2707 185.304 87.1694 185.1 87.2201C184.897 87.2708 184.49 87.7014 184.261 87.6254C184.617 88.3093 189.322 89.9558 189.678 89.1959C189.245 88.9426 188.304 88.7399 188.304 88.132C188.304 87.4481 189.195 87.4481 189.652 87.4734C190.67 87.5241 192.399 87.8533 192.806 88.9172C192.984 89.3732 193.035 90.513 192.831 90.9437C192.704 91.2223 192.501 91.5769 192.145 91.6276C191.992 91.6529 191.814 91.4756 191.789 91.4756C191.076 91.6276 189.779 92.1849 189.017 91.3996C188.457 92.1089 185.812 91.3236 184.998 91.0703C183.574 90.589 181.616 89.9558 180.751 88.6386C179.709 87.0174 181.845 85.6749 183.066 85.0163C184.795 84.1298 186.702 83.9271 188.584 83.9271ZM195.756 87.6507C196.086 87.752 196.417 87.828 196.748 87.9293C196.671 88.5119 195.349 88.056 195.756 87.6507ZM205.75 108.65C205.852 106.345 205.191 104.293 204.784 102.064C204.682 101.506 204.784 100.544 204.352 100.088C203.945 99.6573 203.055 100.012 203.004 99.2267C202.597 99.6827 202.648 99.784 202.165 99.2521C202.258 99.4768 202.276 99.7256 202.215 99.9613C201.91 99.784 200.817 99.2014 200.893 100.012C199.977 99.8093 200.257 99.2521 199.723 98.8214C199.647 98.7708 199.342 98.9734 199.24 98.8974C199.066 98.7324 198.904 98.5546 198.757 98.3655C198.512 98.6138 198.249 98.8425 197.968 99.0494C197.896 98.8756 197.781 98.7222 197.635 98.603C197.488 98.4837 197.315 98.4021 197.129 98.3655C197.485 99.1001 198.324 100.012 197.155 100.443C196.442 100.696 195.298 100.392 194.561 100.443C191.814 100.645 188.788 100.063 186.117 99.404C183.371 98.7201 180.624 97.7829 178.157 96.3897C177.688 96.1012 177.253 95.7613 176.86 95.3765C176.428 95.0219 176.097 94.9712 175.563 94.7432C174.607 94.3126 173.744 93.7019 173.02 92.9448C171.469 91.3743 170.019 89.2972 170.452 86.9921C170.884 84.687 172.461 82.8886 174.165 81.3941C176.174 79.6095 178.415 78.1015 180.828 76.9106C181.896 76.3787 184.642 74.3522 185.71 75.5428C186.397 76.3027 186.016 77.2652 185.075 77.4425C184.846 77.4932 184.617 77.3412 184.388 77.4425C184.057 77.5945 184.185 77.7718 184.032 77.8985C183.789 78.1891 183.506 78.4449 183.193 78.6584C181.947 79.317 180.751 79.8489 179.556 80.6595C178.997 81.0395 178.488 81.1914 178.005 81.5207C177.522 81.85 177.42 82.382 176.759 82.0527C176.988 82.9899 175.614 84.0031 175.055 84.5604C174.216 85.447 173.198 86.5868 173.605 87.904C174.368 90.4877 177.827 92.4382 180.065 93.578C182.854 95.0429 185.858 96.0602 188.966 96.5924C190.492 96.8203 192.094 96.9723 193.62 97.1243C194.815 97.2509 196.671 96.8203 197.536 97.9095C197.561 96.643 201.503 96.7697 202.343 96.5924C200.664 90.8677 197.358 85.7763 193.823 81.0141C192.094 78.6837 190.39 76.2773 188.406 74.1242C186.245 71.7685 183.778 69.6914 181.413 67.5383C176.809 63.3081 171.596 59.5339 166.306 56.2156C161.017 52.8973 155.549 49.6297 149.751 47.274C143.138 44.5636 136.17 42.7905 129.202 41.2707C130.143 40.0801 131.694 39.4722 132.89 38.611C133.322 38.307 133.881 37.5724 134.441 37.4711C135.026 37.3698 135.509 38.003 135.941 38.3323C137.162 39.2442 138.001 38.8643 139.4 38.8136C140.239 38.7883 142.223 39.2442 142.554 38.1297C143.011 38.7629 142.35 39.2442 141.994 39.7002C142.248 40.0548 142.452 39.6748 142.706 39.6242C142.782 39.5482 142.859 39.4975 142.935 39.4215C143.062 39.2442 143.164 39.2442 143.266 39.4215C143.418 39.6495 143.571 39.5988 143.723 39.2695C143.774 39.2442 143.8 39.2189 143.851 39.1936C144.029 39.0922 144.207 38.9403 144.385 38.8389C145.57 37.9439 146.839 37.1636 148.174 36.5085C149.344 35.9513 148.708 34.8874 149.496 34.1275C149.674 33.9502 149.979 34.0515 150.157 33.8995C150.335 33.7475 150.361 33.5955 150.514 33.4435C150.844 33.0889 150.463 32.6583 151.276 33.0889L150.971 31.4171C152.573 32.9623 152.573 28.5041 152.802 27.8202C152.777 27.8962 152.955 27.2376 152.955 27.2376C153.006 25.8951 153.184 24.9072 151.607 24.8312C152.217 24.4512 152.395 25.1858 152.675 24.4259C152.802 24.0459 152.37 23.3874 153.082 23.6407C153.235 22.8301 153.082 22.1715 152.904 21.3863C152.726 20.5757 152.828 20.0437 152.828 19.2332C152.828 18.3213 152.421 17.4094 152.268 16.4975C152.167 15.7882 152.268 14.699 151.353 14.9523C151.226 14.7497 151.683 14.1417 151.658 13.8378C151.632 13.3565 151.124 12.8752 150.971 12.4446C150.872 12.556 150.741 12.635 150.596 12.6711C150.451 12.7073 150.298 12.699 150.157 12.6472C150.437 12.0393 150.183 11.8367 149.903 11.3047C149.751 11.0008 149.852 10.6715 149.522 10.4435C149.344 10.3168 149.013 10.5195 148.886 10.3928C148.581 10.0889 148.682 9.65825 148.479 9.25297C148.199 8.74636 147.589 8.34107 147.182 7.93578C144.817 5.75737 142.248 4.06023 139.095 3.22432C135.916 2.36309 132.228 2.05912 129.049 3.04701C127.778 3.45229 126.659 3.40163 125.515 4.13622C125.133 4.38952 125.108 4.31353 124.93 4.71882C124.879 4.82014 125.286 5.07344 125.031 5.22543C124.777 5.40274 124.472 5.04811 124.345 4.76948C122.692 5.96001 121.166 7.5305 120.225 9.35429C119.284 11.1528 119.208 13.2805 118.852 15.231C117.224 13.1792 115.011 12.2926 112.595 13.1792C110.485 13.9644 108.857 15.6869 108.45 17.916C108.223 19.267 108.446 20.6549 109.086 21.8675C109.366 22.3995 109.671 22.9821 110.179 23.3367C110.561 23.6153 111.248 23.59 111.426 24.0966C111.705 24.8819 110.078 26.5537 109.671 27.2376C108.891 28.4612 108.219 29.7494 107.662 31.0878C105.729 28.3775 103.872 25.3885 101.685 22.8807C99.6 20.525 97.1332 18.3973 94.7172 16.3962C89.6818 12.242 84.443 8.34107 78.8226 5.02278C73.5329 1.9578 67.2005 0.260658 61.097 0.843259C55.1206 1.42586 50.543 5.2001 46.7029 9.5316C39.3024 17.8653 34.7756 29.7706 34.3433 40.8654C34.183 44.1778 34.4999 47.496 35.2842 50.7189C35.6657 52.2641 35.6148 53.7839 35.8437 55.3291C36.098 57.0769 36.5558 58.85 36.9881 60.5725C38.6678 67.1706 40.7053 73.6731 43.0916 80.0516C44.3123 83.3445 45.7874 86.5868 47.7964 89.4998C48.712 90.8423 49.9072 91.9062 50.9245 93.1727C51.8909 94.4139 52.1452 95.9338 52.3486 97.4536C52.8573 101.101 53.1879 104.749 53.493 108.422C53.6202 109.967 53.7728 111.512 53.9762 113.057C54.1543 114.4 53.6965 114.324 52.5775 114.805C52.8064 113.589 47.3895 114.425 46.8555 114.501C46.296 114.602 45.7111 114.602 45.2787 114.653C44.7779 114.766 44.2664 114.826 43.7528 114.83C42.9136 114.805 41.3623 114.602 41.0571 115.641C40.8282 114.425 39.4041 115.768 40.4722 115.54C39.3787 115.666 38.2597 115.464 37.1407 115.565C35.8691 115.692 34.5976 115.793 33.326 115.995C32.4359 116.122 31.5967 116.477 30.732 116.553C29.613 116.679 28.4178 116.654 27.2988 116.755C23.1026 117.135 18.7539 118.047 14.6849 119.086C13.7693 119.314 12.7012 119.491 11.8111 119.871C11.5822 119.972 11.3534 120.2 11.1245 120.276C10.743 120.428 10.7939 120.327 10.4633 120.378C8.45419 120.783 6.36882 121.442 4.33431 121.948C3.21534 122.227 1.38428 122.48 0.468755 123.265C0.0618539 123.62 -0.294185 124.228 0.36703 124.633C0.901087 124.937 1.6386 124.456 2.07093 124.177C1.68946 125.165 0.977381 125.646 1.35885 126.761C1.66403 127.647 2.35067 128.737 3.39336 128.154C3.54594 128.483 3.59681 129.142 4.00371 129.243C4.38518 129.345 4.63949 128.889 5.02096 128.99C5.14812 129.041 5.09725 129.269 5.22441 129.345C5.43055 129.436 5.64303 129.512 5.86019 129.573C6.09698 129.675 6.34428 129.752 6.5977 129.801C6.75488 129.752 6.90154 129.675 7.03003 129.573C7.33521 129.623 7.4878 130.206 7.71668 130.358C7.96714 130.552 8.2661 130.675 8.58134 130.712C9.31885 130.864 10.2598 131.143 10.7684 130.408C10.6667 130.94 11.3788 130.89 11.7094 130.966C11.689 130.825 11.6402 130.689 11.5659 130.567C11.4916 130.445 11.3934 130.34 11.2771 130.257C11.9891 130.307 11.7094 131.016 12.2435 131.219C12.6249 131.346 12.5741 131.016 12.8792 130.966C13.2607 130.915 13.5659 131.194 14.1508 130.94C14.278 131.523 14.3288 132.106 15.0409 132.182C15.4478 132.232 16.4396 131.472 16.3633 132.106C17.3043 131.827 17.6349 132.03 18.1435 132.84C18.2198 132.334 18.6267 132.486 18.9828 132.46C19.5677 132.41 19.5677 132.46 20.0254 132.131C20.0763 132.106 20.4069 131.295 20.5849 131.802C20.6612 132.03 20.178 132.562 20.0254 132.688C20.2289 132.79 20.941 133.17 21.2207 133.094C21.4496 133.043 21.4496 132.638 21.7293 132.612C21.653 132.84 21.6022 133.068 21.5259 133.296C22.0599 133.372 22.5177 133.018 22.95 132.739C23.3569 133.777 24.5268 133.195 25.1626 133.98C25.4932 134.385 25.5186 134.715 26.1544 134.816C26.8156 134.917 27.4005 134.639 27.96 135.171C27.782 134.841 27.3497 134.563 27.782 134.183C28.0872 134.613 28.2398 135.12 28.5704 135.5L28.7229 134.892C29.613 135.855 30.7575 135.855 31.9019 136.386V135.779C32.7157 137.02 32.7665 136.234 33.7583 135.728C33.682 136.108 33.6312 136.462 33.5549 136.842C34.267 136.792 34.9282 137.628 35.5131 136.918C35.8691 137.501 36.3015 137.222 36.861 137.4C37.1916 137.501 37.4205 137.83 37.7511 137.932C38.2343 138.109 38.3614 138.109 38.8192 138.261C39.2261 138.388 39.455 138.666 39.9382 138.742C40.2496 138.789 40.5656 138.797 40.8791 138.768C41.0063 138.768 40.9554 138.489 41.2352 138.565C41.6421 138.666 41.9472 139.173 42.2524 139.451C42.7102 138.337 43.9563 139.831 44.5667 140.034C44.6175 139.755 44.6175 139.401 44.821 139.173C45.0753 139.705 45.1516 140.161 45.6602 140.49C45.991 140.684 46.352 140.821 46.7283 140.895C46.9318 140.946 47.3387 140.895 47.4658 140.946C47.6947 141.047 47.771 141.351 47.9999 141.377C48.127 141.402 48.3305 141.047 48.4322 141.073C48.89 141.199 49.1697 141.757 49.6275 142.06C51.0262 142.972 52.8064 143.048 54.3577 143.251C54.7392 143.302 54.8155 143.2 55.1206 143.428C55.2987 143.555 55.2224 143.935 55.4258 144.036C56.2142 144.442 56.2142 143.58 56.3922 143.074C56.6465 143.428 56.6974 143.859 57.0534 144.138C57.2487 144.133 57.4441 144.142 57.6383 144.163C57.7412 144.287 57.8112 144.435 57.8418 144.594C58.325 144.923 58.8591 144.796 59.3422 145.05C59.4948 145.125 59.7746 145.607 59.978 145.733C60.379 145.968 60.8179 146.131 61.275 146.215C62.1143 146.443 63.335 146.139 63.8436 147.025C64.5048 146.316 64.2505 147.152 64.7083 147.355C64.988 147.456 65.3695 147.051 65.6746 147.076C66.2087 147.152 66.4122 147.735 66.5647 148.14C66.8953 148.064 66.6665 147.152 66.6665 146.949C67.0734 146.899 67.1497 147.962 67.2259 148.19C67.8617 147.887 66.8191 146.924 67.5057 146.62C67.4548 147.431 68.0906 148.114 66.9208 148.216C67.0734 148.697 70.8372 149.254 71.0915 148.824C71.1424 149.634 71.6764 148.874 71.8799 148.596C71.9053 149.052 71.7527 149.736 72.2614 149.938C72.6174 150.09 73.4312 149.71 73.5584 149.356C73.7109 149.888 73.9907 149.862 74.3213 150.217C74.5502 150.445 74.7028 150.85 74.9316 151.053C75.364 151.407 76.2032 151.357 76.7118 151.281C77.7291 151.129 77.6019 150.926 77.958 151.965C78.0343 151.559 78.2886 150.749 78.7463 151.357C79.0261 151.737 78.4157 152.598 78.2631 152.953C78.6422 152.711 79.053 152.524 79.4838 152.395C79.5263 152.58 79.5175 152.773 79.4584 152.953C79.6873 153.064 79.9083 153.191 80.1196 153.333C80.1331 153.067 80.1757 152.804 80.2468 152.547C80.8571 152.927 80.4248 153.662 80.9843 154.042C81.1369 154.143 81.4675 154.016 81.6201 154.092C81.9253 154.194 82.1796 154.472 82.4339 154.65C82.2304 154.371 82.2559 153.89 82.2559 153.561C82.383 153.637 82.4847 153.915 82.6119 153.94C82.6628 153.94 83.1968 154.016 83.1968 154.016C83.7563 154.396 83.6292 154.447 83.1714 154.928C83.3494 155.207 84.0615 154.726 84.2395 154.65C84.2904 154.751 84.2904 155.131 84.3667 155.207C84.42 155.312 84.4626 155.423 84.4938 155.536C84.5568 155.485 84.631 155.449 84.7105 155.431C84.7901 155.414 84.8726 155.415 84.9516 155.435C85.0533 155.46 85.8671 155.79 85.918 155.688C85.7446 155.629 85.5816 155.544 85.4348 155.435C85.8925 155.03 86.1977 154.802 86.63 155.41C86.6809 155.486 86.5029 155.764 86.5537 155.866C86.7572 156.246 87.1895 156.524 87.4693 156.828C87.5964 156.423 87.3167 155.384 87.9779 155.41C88.512 155.435 88.8934 156.702 88.7154 157.107C88.9189 156.879 90.165 156.651 90.3939 156.727C91.0551 156.929 90.8771 157.537 91.6909 156.651C92.2504 157.031 91.7672 157.183 91.8689 157.639C91.94 157.654 92.0136 157.653 92.0841 157.635C92.1547 157.617 92.2202 157.584 92.2758 157.537C92.1741 159.513 93.6491 157.993 94.6155 158.297C94.9969 158.424 95.0987 158.829 95.4801 158.956C95.6836 159.032 95.9379 158.855 96.1414 158.905C96.3194 158.88 96.472 158.855 96.6246 158.829C96.828 158.728 96.9297 158.829 96.9043 159.184C97.2349 159.361 97.1077 159.412 97.5146 159.463C97.769 159.488 97.9978 159.235 98.2776 159.26C98.7608 159.336 98.7099 159.716 99.0151 159.918C99.3024 160.075 99.6374 160.12 99.9561 160.045C100.134 160.02 100.643 159.792 100.694 159.792C101.075 159.792 100.872 159.716 101.304 160.02C101.568 160.259 101.88 160.44 102.219 160.552C102.703 160.678 103.593 160.957 103.898 160.628C104.356 161.286 104.686 160.805 105.271 160.856C105.576 160.881 105.627 161.008 105.882 161.033C106.314 161.109 106.848 161.033 107.331 161.185C108.069 161.413 108.145 161.54 108.882 161.565C109.01 161.514 109.162 161.464 109.289 161.413C109.334 161.625 109.44 161.819 109.595 161.97C110.001 162.046 110.281 161.844 110.637 161.616C110.892 162.401 111.731 162.477 112.443 162.578C113.587 162.755 114.681 162.831 115.8 163.211C116.742 163.526 117.667 163.89 118.572 164.301C119.36 164.655 120.098 165.187 121.013 164.934C123.048 164.377 125.006 162.3 126.684 161.109C128.693 159.69 130.855 158.551 132.94 157.284C141.282 152.243 150.107 147.988 158.346 142.744C162.848 139.882 167.018 136.513 171.825 134.183C171.138 137.02 169.968 139.882 170.172 142.846C170.248 144.036 170.604 145.455 171.545 146.291C172.69 147.329 173.961 146.671 175.08 145.936C177.445 144.366 178.997 142.06 180.751 139.907C182.837 137.349 184.439 134.613 185.99 131.7C186.346 132.207 186.066 133.068 186.092 133.651C186.103 134.375 186.286 135.087 186.626 135.728C187.491 137.4 189.144 137.805 190.644 136.665C193.518 134.461 195.196 130.535 196.748 127.394C197.638 129.015 198.884 131.092 200.995 129.927C202.749 128.965 203.767 126.812 204.301 124.988C206.005 119.516 205.521 114.096 205.75 108.65Z" fill="black"/>
<path fill-rule="evenodd" clip-rule="evenodd" d="M203.106 76.7081C202.902 76.2268 202.826 76.3028 203.182 75.8469C203.487 76.1255 203.258 76.3535 203.106 76.7081ZM211.93 105.863C211.371 104.268 211.727 102.545 211.371 100.924C211.218 100.189 210.964 99.4548 210.888 98.6949C210.837 98.3656 210.557 96.8458 210.76 96.5925C210.125 96.2125 210.125 95.9339 209.972 95.174C210.201 94.946 210.175 94.7434 209.896 94.5661C209.723 94.3352 209.536 94.1153 209.336 93.9075C210.15 94.2874 209.667 93.2995 209.591 92.7169C209.545 92.2546 209.46 91.797 209.336 91.3491C209.158 90.8172 208.726 90.5385 209.591 90.5385C209.311 90.2092 208.878 89.8799 208.726 89.4746C208.522 88.892 208.853 88.1575 208.446 87.6508C208.217 87.3722 206.997 87.2709 207.225 86.6376C207.327 86.3337 207.81 86.5616 207.963 86.3337C208.548 85.4724 206.793 85.1178 206.717 84.7632C206.615 84.2819 207.251 84.1806 207.276 83.75C207.302 83.3193 206.64 82.6101 206.462 82.2301C206.208 82.2808 205.954 82.6608 205.674 82.4834C205.623 82.4581 205.7 80.9636 205.649 80.761C205.598 80.5583 205.471 80.0517 205.42 79.9504C205.242 79.5704 204.733 79.3931 204.631 78.9372C204.581 78.6585 205.649 78.2532 204.428 78.2532C204.86 77.4933 204.072 77.0374 203.767 76.3788C203.385 75.5429 203.182 74.631 202.8 73.7951C202.435 72.9783 201.992 72.198 201.478 71.4647C200.995 70.8061 200.791 70.1728 200.384 69.4889C200.308 69.4383 200.232 69.3623 200.156 69.3116C199.825 69.3623 199.723 69.2103 199.85 68.881C199.596 68.5264 199.418 68.1211 199.189 67.7411C198.935 67.3105 198.604 66.9305 198.324 66.4999C197.968 65.9173 197.867 65.2841 197.485 64.7015C197.002 63.9922 196.468 63.3843 196.01 62.6497C195.451 61.7378 194.84 61.1552 194.128 60.4459C193.798 60.1167 193.747 59.2554 193.34 58.7741C192.882 58.2422 192.45 58.1155 192.145 57.4316C191.738 56.5451 191.153 56.1144 190.568 55.3545C190.085 54.7213 189.856 53.9867 189.322 53.3788C188.864 52.8468 188.355 52.3655 187.872 51.8589C187.262 51.2257 186.804 50.4657 186.194 49.8578C186.295 49.9338 185.634 49.4272 185.685 49.4525C185.514 49.3876 185.334 49.3532 185.151 49.3512C184.185 48.7939 182.989 46.7422 181.565 47.8314C180.802 48.414 181.184 49.4525 181.692 50.0098C181.921 50.2631 183.091 51.4536 183.345 50.947C183.625 51.327 184.464 53.2014 185.176 52.6695C185.1 53.3028 185.482 53.1001 185.736 53.5307C185.889 53.8094 185.812 53.9614 185.939 54.392C186.27 55.6078 187.491 56.8237 188.152 57.8876C189.805 60.5473 191.611 63.0803 193.238 65.74C194.815 68.2731 196.57 70.6794 198.07 73.2632C199.774 76.2015 201.91 78.9625 203.207 82.1035C203.258 82.2048 203.614 82.3821 203.69 82.5341C203.843 82.8127 203.818 83.294 203.919 83.598C204.286 84.6883 204.809 85.7205 205.471 86.663C206.03 87.4482 206.081 88.5374 206.462 89.4493C206.997 90.7665 207.581 92.0583 208.116 93.3502C208.883 95.3555 209.536 97.402 210.074 99.4802C210.449 100.85 210.713 102.248 210.862 103.66C210.964 104.977 210.989 106.345 211.472 107.586C211.778 107.155 212.159 106.497 211.93 105.863Z" fill="black"/>
<path fill-rule="evenodd" clip-rule="evenodd" d="M23.9673 134.006C23.3824 133.879 22.8229 133.727 22.6957 133.043C22.6194 133.372 22.5177 133.676 22.4414 134.006C23.1535 134.158 23.891 134.335 24.6031 134.487C24.5509 134.357 24.4641 134.243 24.3521 134.158C24.2401 134.074 24.1071 134.021 23.9673 134.006Z" fill="black"/>
<path fill-rule="evenodd" clip-rule="evenodd" d="M25.5439 23.1594C25.5879 22.9691 25.6474 22.7827 25.7219 22.6021C25.7728 22.7794 26.0016 23.1594 25.8745 23.3367C25.6965 23.5393 25.5185 23.438 25.5439 23.1594ZM28.4431 17.688C28.6465 17.764 29.0534 17.7893 29.3077 17.8653C28.6719 18.3972 28.5702 18.2453 27.7564 18.1693C27.731 17.6373 27.9344 17.46 28.4431 17.688ZM23.0262 31.0878H23.2805C23.2847 30.8511 23.2762 30.6143 23.2551 30.3785C24.0943 30.5559 23.6365 29.0867 23.3568 28.7827C24.196 28.8081 24.6029 26.199 24.8572 25.6924C25.0861 25.2365 25.3659 25.0592 25.5185 24.5272C25.6587 24.0575 25.8374 23.6001 26.0525 23.1594C26.5357 22.1208 27.1969 21.1836 27.0698 19.9677C27.4767 20.8796 27.8581 19.9677 28.1124 19.5371C28.5448 18.8279 29.5875 17.9413 29.6892 17.1054C29.7909 16.3708 29.2314 16.3455 29.562 15.6616C29.8926 14.9776 30.147 15.0536 30.7319 14.8257C31.1133 14.6737 31.1896 14.851 31.4439 14.3697C31.622 14.0657 31.5457 13.8378 31.7746 13.5845C31.8619 13.6516 31.9694 13.6873 32.0797 13.6858C32.2591 13.4558 32.3811 13.1867 32.4358 12.9005C32.5532 12.5111 32.6977 12.1302 32.8681 11.7607C33.0715 11.406 33.453 10.4435 33.6565 10.2915C33.8599 10.1142 35.0552 10.1902 35.0552 10.2155C35.5384 9.60758 34.6483 8.97432 35.8944 9.12631C35.6401 8.67036 36.5048 8.08776 36.7591 7.83445C37.3949 7.20119 37.4457 6.89723 37.5729 6.11198C37.6492 5.7067 37.1914 5.75736 37.8018 5.65604C38.0561 5.60537 38.285 5.93467 38.463 5.88401C39.2514 5.68137 38.4376 5.73203 38.641 5.40273C38.7173 5.30141 39.0479 4.89612 39.0479 4.89612C39.0701 4.73605 39.1218 4.58146 39.2005 4.44017C39.3468 4.42938 39.4916 4.40392 39.6328 4.36418C39.7091 4.2122 39.76 4.06022 39.8363 3.90823C40.3958 3.45229 41.235 3.22431 41.6165 2.7177C41.8708 2.38841 41.7945 2.05911 42.1251 1.72982C42.4303 1.42585 42.8372 1.65382 42.9135 0.919242C42.9898 0.00734562 42.0234 -0.397941 41.6165 0.513955C40.5229 -0.803229 35.9962 4.06022 35.4875 4.69348C33.2241 7.4545 30.9862 10.2915 29.1297 13.3565C27.323 16.3304 25.8233 19.4791 24.6538 22.7541C24.1255 24.3272 23.7091 25.9355 23.4077 27.5669C23.2805 28.1241 22.4413 30.5559 22.7973 31.1131C22.899 31.1131 22.9499 31.0878 23.0262 31.0878Z" fill="black"/>
<path fill-rule="evenodd" clip-rule="evenodd" d="M201.885 98.8976C202.266 98.6443 202.266 98.6443 202.343 98.163C201.834 98.2643 201.834 98.2643 201.885 98.8976Z" fill="black"/>
<path fill-rule="evenodd" clip-rule="evenodd" d="M12.9811 131.473C13.1083 131.726 13.2863 131.802 13.5406 131.65C13.6423 131.827 12.6505 130.763 12.9811 131.473Z" fill="black"/>
<path fill-rule="evenodd" clip-rule="evenodd" d="M30.2489 15.2816C29.6385 16.4468 30.4014 15.6109 30.3506 15.9909C30.4014 15.7376 30.5032 15.3829 30.2489 15.2816Z" fill="black"/>
<path fill-rule="evenodd" clip-rule="evenodd" d="M127.702 33.4182C127.956 35.5207 130.855 34.5328 131.491 33.2662C131.974 32.3543 133.144 28.6814 131.872 27.9215C130.931 27.3389 130.728 29.8213 130.474 30.3532C130.092 31.2651 129.762 30.6319 128.897 30.8599C127.956 31.1132 127.6 32.5317 127.702 33.4182Z" fill="black"/>
<path fill-rule="evenodd" clip-rule="evenodd" d="M124.548 29.5679C125.591 29.7959 126.582 29.6693 127.32 28.8587C127.727 28.4027 128.261 27.5162 127.523 27.0856C126.862 26.6803 126.099 27.6175 125.413 27.4149C124.472 27.1616 124.955 26.1483 124.624 25.4644C123.454 26.1737 122.793 29.188 124.548 29.5679Z" fill="black"/>
<path fill-rule="evenodd" clip-rule="evenodd" d="M125.616 34.8622C124.625 34.8622 124.625 36.0781 125.133 36.61C125.642 37.1167 126.888 37.6233 127.549 37.218C128.897 36.4581 126.43 34.9382 125.616 34.8622Z" fill="black"/>
<path fill-rule="evenodd" clip-rule="evenodd" d="M67.8109 83.2687C68.0144 83.37 68.6502 83.902 68.9045 83.6487L67.7855 82.5341C67.6075 82.7621 67.4549 83.0914 67.8109 83.2687Z" fill="black"/>
<path fill-rule="evenodd" clip-rule="evenodd" d="M63.1313 29.8719L62.8262 30.0999C63.1822 30.4039 63.1822 30.4799 63.5382 30.2012C63.421 30.0707 63.2836 29.9596 63.1313 29.8719Z" fill="black"/>
<path fill-rule="evenodd" clip-rule="evenodd" d="M130.448 99.5055C130.245 99.1509 129.863 99.8095 129.609 99.9108C129.202 100.088 128.846 99.1509 128.973 100.265C128.032 99.8348 127.473 100.823 126.863 101.329C125.998 102.064 124.955 102.444 124.396 103.457C127.091 104.09 130.016 101.785 132.025 100.265C132.356 100.012 133.983 98.771 132.89 98.6443C132.432 98.619 130.779 100.113 130.448 99.5055Z" fill="black"/>
<path fill-rule="evenodd" clip-rule="evenodd" d="M129.66 97.3524C130.194 96.9472 129.05 96.8965 128.872 96.8712C128.897 97.2005 128.897 97.5298 128.922 97.859C129.177 97.6817 129.406 97.5298 129.66 97.3524Z" fill="black"/>
<path fill-rule="evenodd" clip-rule="evenodd" d="M127.676 98.7203C127.829 98.619 128.261 98.315 127.982 98.087C127.848 98.1709 127.733 98.282 127.646 98.4129C127.558 98.5439 127.499 98.6918 127.473 98.8469C127.549 98.8201 127.619 98.7768 127.676 98.7203Z" fill="black"/>
<path fill-rule="evenodd" clip-rule="evenodd" d="M84.2143 72.1233C84.0737 72.1553 83.9497 72.2373 83.8654 72.3539C83.7811 72.4704 83.7424 72.6136 83.7565 72.7566C83.8978 72.7258 84.0227 72.6442 84.1072 72.5273C84.1917 72.4104 84.2298 72.2665 84.2143 72.1233Z" fill="black"/>
</g>
<defs>
<clipPath id="clip0_67_2">
<rect width="212" height="165" fill="white"/>
</clipPath>
</defs>
</svg>
