<svg width="16" height="19" viewBox="0 0 16 19" fill="none" xmlns="http://www.w3.org/2000/svg">
<path d="M1.25252 17.8687C0.683375 17.2995 0.363632 16.5276 0.363632 15.7227V3.12574C0.363632 2.32084 0.683375 1.54892 1.25252 0.979771C1.82167 0.410625 2.5936 0.0908813 3.39849 0.0908813H12.0605C12.966 0.0908813 13.8345 0.450592 14.4747 1.09088C15.115 1.73117 15.4747 2.59959 15.4747 3.5051V9.78778C15.4747 10.6933 15.115 11.5617 14.4747 12.202C13.8345 12.8423 12.966 13.202 12.0605 13.202H9.11118C8.20568 13.202 7.33726 12.8423 6.69697 12.202C6.05668 11.5617 5.69697 10.6933 5.69697 9.78778V9.57514C5.69697 7.44943 7.38816 5.7095 9.51301 5.64914L11.6907 5.58727C12.7088 5.55835 13.5192 4.72466 13.5192 3.70612C13.5192 2.66677 12.6766 1.82421 11.6373 1.82421H7.31918C4.55776 1.82421 2.31919 4.06279 2.31919 6.82422V12.0242C2.31919 14.7856 4.55777 17.0242 7.31919 17.0242H14.6081C15.0867 17.0242 15.4747 17.4122 15.4747 17.8909C15.4747 18.3695 15.0867 18.7575 14.6081 18.7575H3.39849C2.59359 18.7575 1.82167 18.4378 1.25252 17.8687ZM7.65252 9.38148C7.65252 10.5342 8.58698 11.4687 9.7397 11.4687H11.3703C12.5571 11.4687 13.5192 10.5066 13.5192 9.3198C13.5192 8.06906 12.4552 7.0826 11.208 7.17708L9.58203 7.30026C8.49359 7.38272 7.65252 8.28992 7.65252 9.38148Z" fill="black"/>
</svg>
