<svg width="19" height="20" viewBox="0 0 19 20" fill="none" xmlns="http://www.w3.org/2000/svg">
<path d="M12.7003 1.39994C12.7003 1.89905 12.2965 2.30407 11.7974 2.30552L6.81501 2.32009L2.25408 2.34005C1.517 2.34328 0.921173 2.94171 0.921173 3.67881C0.921173 4.4159 1.517 5.01434 2.25408 5.01757L6.81501 5.03753L11.7974 5.05209C12.2965 5.05355 12.7003 5.45857 12.7003 5.95768C12.7003 6.45636 13.1046 6.86063 13.6033 6.86063H15.8471C17.585 6.86063 18.9939 5.45176 18.9939 3.71384V3.67881V3.64377C18.9939 1.90585 17.585 0.496989 15.8471 0.496989H13.6033C13.1046 0.496989 12.7003 0.901253 12.7003 1.39994Z" fill="black"/>
<path d="M0.921173 10.0424C0.921173 10.7688 1.50999 11.3576 2.23632 11.3576H9.95754H17.6787C18.4051 11.3576 18.9939 10.7688 18.9939 10.0424C18.9939 9.31609 18.4051 8.72727 17.6787 8.72727H9.95754H2.23632C1.50999 8.72727 0.921173 9.31609 0.921173 10.0424Z" fill="black"/>
<path d="M1.69231 13.246C1.21866 13.257 0.953951 13.5217 0.942948 13.9954C0.929487 14.5748 0.921173 15.4532 0.921173 16.4231C0.921173 18.1241 2.30014 19.5031 4.00117 19.5031H4.06057H6.30905C6.80109 19.5031 7.19996 19.1042 7.19996 18.6121C7.19996 18.1201 7.59883 17.7212 8.09087 17.7212H13.0969H17.6787C18.4051 17.7212 18.9939 17.1324 18.9939 16.4061C18.9939 15.6791 18.4057 15.0892 17.6788 15.0871L13.1224 15.074L8.15909 15.0525C7.64812 15.0503 7.23112 14.6429 7.21693 14.1321C7.20276 13.6267 6.78891 13.2243 6.28324 13.2243H4.11148C3.14687 13.2243 2.27087 13.2326 1.69231 13.246Z" fill="black"/>
</svg>
