<svg width="24" height="24" viewBox="0 0 24 24" fill="none" xmlns="http://www.w3.org/2000/svg">
<g clip-path="url(#clip0_8_348)">
<path d="M11.5964 1.79999C9.67035 1.79999 7.82764 2.31468 6.19795 3.28369L9.99163 5.32072C11.698 6.23698 12.906 7.80486 13.3785 9.66348L13.5453 9.91412L15.3816 12.668L15.7554 13.2299C16.7576 13.2701 17.5185 14.0022 17.8339 15.2627C18.2809 17.05 17.1968 18.406 16.0337 19.0797C15.2425 19.5974 13.4588 20.0164 11.8683 20.0164C9.30548 20.0164 6.84203 19.0119 5.43964 17.3953C4.45976 16.2653 4.05145 14.9021 4.25863 13.4529C4.26026 13.4409 4.26653 13.4314 4.26925 13.42C4.27414 13.4015 4.28021 13.3843 4.28837 13.3679C4.29598 13.3538 4.30461 13.3417 4.31385 13.3286C4.32582 13.3129 4.33793 13.2992 4.35315 13.2862C4.36403 13.2769 4.37624 13.2699 4.3882 13.2628C4.4056 13.2519 4.42331 13.2428 4.44343 13.2362C4.45811 13.2314 4.47333 13.2294 4.48909 13.2267C4.50269 13.2251 4.51373 13.2193 4.52733 13.2193C4.5344 13.2193 4.53938 13.223 4.54645 13.2235C4.55297 13.224 4.55904 13.2214 4.56556 13.2224C4.57753 13.2241 4.58813 13.2309 4.59955 13.2341C4.61749 13.239 4.63421 13.244 4.65053 13.2522C4.6663 13.2603 4.67942 13.27 4.69301 13.2809C4.7066 13.2917 4.71982 13.3023 4.73124 13.3159C4.74266 13.329 4.75122 13.3432 4.75992 13.3584C4.76862 13.3731 4.77679 13.3877 4.78222 13.4041C4.7882 13.4215 4.79067 13.4397 4.79284 13.4582C4.79339 13.4691 4.79922 13.4792 4.79922 13.4911C4.79922 14.253 5.02872 14.8376 5.50017 15.2765C6.35444 16.072 8.03078 16.3894 10.4897 16.2111C11.7344 16.1224 12.7242 15.8969 13.5007 15.5282C13.5001 15.514 13.5007 15.4883 13.5007 15.4687L12.9442 15.097L10.5014 13.4699L10.4058 13.4614C8.38136 13.2923 6.54827 12.2444 5.37698 10.5853L2.64536 6.71626C1.56162 8.41393 0.992794 10.3633 0.992794 12.4036C0.992794 18.2503 5.74973 23.0072 11.5964 23.0072C17.4431 23.0072 22.2 18.2503 22.2 12.4036C22.2 6.55693 17.4431 1.79999 11.5964 1.79999ZM0.948187 1.80424C0.889528 1.81396 0.834479 1.84271 0.792064 1.8892C0.72953 1.95826 0.723065 2.04914 0.744272 2.1356L6.26486 9.95767C7.13327 11.1882 8.43647 12.0116 9.89923 12.2889L9.90029 12.2836C9.93727 11.6104 10.1797 10.9696 10.5821 10.4791C10.9862 9.98648 11.5399 9.64731 12.1848 9.49886L12.1986 9.49567C11.7331 8.12427 10.7772 6.9769 9.47759 6.27869L1.12343 1.83397C1.06823 1.80407 1.00685 1.79452 0.948187 1.80424ZM12.6223 10.5174L12.4397 10.5599C12.0253 10.655 11.6862 10.8596 11.4328 11.1684C11.1745 11.4827 11.0197 11.9004 10.9953 12.3441L10.9868 12.4992L13.5283 14.1921C13.748 13.8077 14.0704 13.4915 14.4576 13.2724L12.6223 10.5174ZM15.6567 14.037C15.6164 14.037 15.5758 14.0385 15.5345 14.0424C14.9744 14.0978 14.477 14.5289 14.3524 15.0683C14.2252 15.6213 14.4094 16.1637 14.8346 16.484C15.3517 16.8734 15.4194 17.4479 15.4156 18.0123L15.4124 18.5317L15.8415 18.2385C16.3281 17.9058 17.4189 16.9686 17.0426 15.4613C16.8126 14.5374 16.3206 14.037 15.6567 14.037Z" fill="black"/>
</g>
<defs>
<clipPath id="clip0_8_348">
<rect x="0.733337" y="0.866638" width="22.4" height="22.4" rx="5" fill="white"/>
</clipPath>
</defs>
</svg>
